<?xml version="1.0" encoding="UTF-8"?>
<svg width="70px" height="73px" viewBox="0 0 70 73" version="1.1" xmlns="http://www.w3.org/2000/svg" xmlns:xlink="http://www.w3.org/1999/xlink">
    <!-- Generator: Sketch 48.2 (47327) - http://www.bohemiancoding.com/sketch -->
    <title>noun_1210155_cc</title>
    <desc>Created with Sketch.</desc>
    <defs></defs>
    <g id="Page-1" stroke="none" stroke-width="1" fill="none" fill-rule="evenodd">
        <g id="noun_1210155_cc">
            <polygon id="Shape" fill="#DA151F" fill-rule="nonzero" points="38.9 24.1 41.2 23.3 43.4 22.6 44.8 24.5 46.2 26.5 48.7 26.5 51 26.5 51.7 28.7 52.5 31 53.3 31.3 69.4 0.3 51 0.3 38.8 24"></polygon>
            <polygon id="Shape" fill="#DA151F" fill-rule="nonzero" points="17.5 31 18.3 28.7 19 26.5 21.3 26.5 23.8 26.5 25.2 24.5 26.6 22.6 28.8 23.3 31.1 24.1 31.2 24 19 0.3 0.6 0.3 16.7 31.3"></polygon>
            <ellipse id="Oval" fill="#E3CB83" cx="35" cy="47.5" rx="16" ry="17.5"></ellipse>
            <path d="M55.8,45.2 L57,41.3 L53.7,38.9 L53.7,34.8 L49.8,33.5 L48.5,29.6 L44.4,29.6 L42,26.3 L38.1,27.5 L35,25.3 L31.7,27.7 L27.8,26.5 L25.4,29.8 L21.3,29.8 L20,33.7 L16.1,35 L16.1,39.1 L12.8,41.5 L14,45.4 L11.6,48.7 L14,52 L12.8,55.9 L16.1,58.3 L16.1,62.4 L20,63.7 L21.3,67.6 L25.4,67.6 L27.8,70.9 L31.7,69.7 L35,72.1 L38.3,69.7 L42.2,70.9 L44.6,67.6 L48.7,67.6 L50,63.7 L53.9,62.4 L53.9,58.3 L57.2,55.9 L56,52 L58.4,48.7 L55.8,45.2 Z M35,64.2 C26.3,64.2 19.3,57.2 19.3,48.5 C19.3,39.8 26.3,32.8 35,32.8 C43.7,32.8 50.7,39.8 50.7,48.5 C50.7,57.2 43.7,64.2 35,64.2 Z" id="Shape" fill="#ECBC2A" fill-rule="nonzero"></path>
        </g>
    </g>
</svg>